<?xml version="1.0" standalone="no"?>
<!DOCTYPE svg PUBLIC "-//W3C//DTD SVG 20010904//EN"
 "http://www.w3.org/TR/2001/REC-SVG-20010904/DTD/svg10.dtd">
<svg version="1.0" xmlns="http://www.w3.org/2000/svg"
 width="512.000000pt" height="512.000000pt" viewBox="0 0 512.000000 512.000000"
 preserveAspectRatio="xMidYMid meet">

<g transform="translate(0.000000,512.000000) scale(0.100000,-0.100000)"
fill="#000000" stroke="none">
<path d="M1089 4789 c-58 -8 -1015 -348 -1056 -375 -42 -27 -39 -54 23 -225
58 -161 75 -189 118 -189 10 0 219 72 463 160 244 88 447 160 452 160 4 0 246
-652 536 -1450 l528 -1450 -45 -47 c-59 -64 -112 -157 -140 -246 -33 -103 -32
-262 1 -366 68 -208 241 -367 456 -420 76 -19 228 -15 307 8 238 69 413 269
449 514 l11 75 942 342 c965 350 986 359 986 409 0 10 -20 73 -45 142 -91 248
-80 242 -266 174 -71 -26 -133 -44 -137 -41 -3 4 -169 456 -369 1004 -254 699
-369 1002 -384 1015 -12 9 -32 17 -46 17 -29 0 -73 -41 -73 -69 0 -12 41 -133
91 -271 50 -138 90 -252 88 -254 -16 -11 -1533 -556 -1541 -554 -9 3 -402
1069 -396 1073 13 8 511 185 514 182 2 -2 29 -73 59 -158 57 -157 77 -189 120
-189 13 0 110 32 217 70 191 70 238 96 238 136 0 8 -26 86 -58 174 l-59 160
41 15 c23 8 138 51 256 94 l215 78 16 -36 c9 -20 35 -89 59 -154 23 -65 50
-127 60 -139 38 -47 124 -12 122 49 0 16 -32 116 -71 223 -70 193 -91 230
-131 230 -36 0 -1741 -628 -1755 -647 -8 -10 -15 -28 -15 -40 0 -12 196 -560
435 -1217 239 -658 435 -1198 435 -1202 0 -3 -12 -3 -27 1 -16 4 -53 10 -83
14 l-55 6 -548 1505 c-386 1063 -557 1519 -580 1552 -79 116 -218 177 -358
157z m152 -170 c51 -25 93 -78 119 -146 94 -252 1053 -2891 1054 -2901 1 -15
-125 -66 -135 -54 -3 4 -246 666 -538 1472 -293 806 -541 1474 -551 1484 -10
11 -32 19 -47 19 -15 0 -228 -73 -473 -161 -244 -88 -445 -160 -446 -159 -1 1
-14 33 -28 70 -18 49 -22 69 -13 72 374 137 902 325 923 328 42 6 94 -3 135
-24z m1700 -396 c6 -16 26 -69 44 -119 l33 -91 -107 -38 c-58 -21 -111 -40
-117 -42 -10 -4 -102 224 -93 231 3 2 215 82 227 85 1 1 7 -11 13 -26z m1342
-1640 c136 -372 246 -678 244 -679 -1 -1 -337 -124 -746 -273 l-744 -270 -47
42 -48 42 -226 620 c-124 341 -226 625 -226 630 0 8 452 178 498 187 9 2 33
-50 72 -157 33 -88 67 -165 77 -172 9 -7 29 -13 44 -13 35 0 408 136 431 157
28 25 22 61 -37 224 -30 84 -53 154 -51 157 8 8 480 180 497 181 13 1 72 -152
262 -676z m-864 329 c22 -63 41 -115 41 -117 0 -5 -231 -88 -234 -84 -5 7 -77
214 -77 223 0 8 222 97 227 92 1 0 20 -52 43 -114z m1504 -1105 c14 -37 22
-69 18 -71 -6 -4 -1355 -496 -1662 -606 l-107 -39 -19 57 c-11 31 -22 63 -24
70 -3 10 243 104 881 337 487 177 886 322 887 321 1 -1 13 -32 26 -69z m-2219
-407 c198 -62 331 -244 330 -455 0 -286 -252 -502 -539 -463 -221 30 -404 236
-405 454 0 218 136 403 345 469 64 21 193 18 269 -5z"/>
<path d="M2453 1140 c-180 -103 -133 -372 72 -411 162 -31 303 131 251 288
-44 134 -201 193 -323 123z m166 -146 c24 -31 26 -43 10 -78 -16 -34 -57 -47
-96 -31 -73 31 -49 135 32 135 24 0 39 -7 54 -26z"/>
</g>
</svg>
